<?xml version="1.0" encoding="UTF-8"?>
<svg width="40px" height="26px" viewBox="0 0 40 26" version="1.1" xmlns="http://www.w3.org/2000/svg" xmlns:xlink="http://www.w3.org/1999/xlink">
    <!-- Generator: Sketch 50 (54983) - http://www.bohemiancoding.com/sketch -->
    <title>xxhdpi/icon/48x48/加载logo </title>
    <desc>Created with Sketch.</desc>
    <defs></defs>
    <g id="效果图-1229" stroke="none" stroke-width="1" fill="none" fill-rule="evenodd">
        <g id="04特殊状态-02数据加载中" transform="translate(-168.000000, -318.000000)" fill="#FFFFFF">
            <g id="icon/48x48/加载logo-" transform="translate(164.000000, 307.000000)">
                <path d="M13.1938515,23.6409799 C14.4616028,24.2533622 15.4742385,25.4252946 16.9235622,24.5483729 C17.5421324,24.1740004 18.1564405,24.0073936 18.8831947,24.0417306 C18.7630764,23.8758819 18.2918254,23.2359087 17.6120335,22.8354611 C16.9235622,22.4462319 16.0424366,22.3292736 15.2849166,22.9303618 C14.5699418,23.4743731 13.1938515,23.6409799 13.1938515,23.6409799 M9.64230333,22.5905537 C11.4901096,22.8244702 12.614494,23.7809812 14.3535739,22.4807964 C15.0416578,21.9736235 16.320801,21.8339254 16.320801,21.8339254 C16.1625549,21.7279581 15.5746729,21.2520145 14.7751502,21.0557702 C13.9557112,20.8397423 12.9392008,20.9114484 12.1043401,21.5846975 C11.0924019,22.435241 10.3766521,22.3139622 9.13633422,22.2346004 C8.51784144,22.1967765 7.3585065,22.1402303 7.15399548,22.435241 C8.04620291,22.4009797 8.846268,22.4730648 9.64230333,22.5905537 M17.5766955,26.5591758 C18.0830521,25.9429278 18.628544,25.2474696 19.0995625,24.563457 C18.7630764,24.2796645 17.9400726,24.6202306 17.3718745,24.9375264 C16.8423467,25.2474696 16.1162125,25.1982758 16.1162125,25.1982758 C16.5876185,25.6594386 17.0932001,26.0488952 17.5766955,26.5591758 M21.1286312,20.8965159 C20.6801638,20.4500583 20.2588975,20.0948629 19.7760996,19.7057095 C19.7760996,19.7057095 20.0037818,20.4500583 19.8612673,21.1609038 C19.67954,21.9513385 19.5319883,23.1076563 19.7991933,23.3684816 C20.2706768,22.5905537 20.7192216,21.7622193 21.1286312,20.8965159 M17.0932001,18.0272863 C17.0932001,18.0272863 17.5766955,19.1767064 17.3220448,19.9894261 C17.0589471,20.8965159 17.5150865,21.6296464 18.013461,22.2458944 C18.5429113,22.8730576 19.0995625,23.3684816 19.242387,23.4974161 C19.242387,23.4974161 19.0146273,22.1291636 19.2541664,21.3011324 C19.7878789,19.3051861 18.5551556,18.7946781 17.0932001,18.0272863 M13.7005956,16.8025976 C15.1844823,17.1429363 16.9353415,17.4377196 16.490749,19.44496 C16.2822082,20.204696 16.6723988,21.3236448 16.6723988,21.3236448 C16.5139202,21.2291989 15.8148319,20.9114484 15.1962616,20.4500583 C14.5585499,20.0270984 13.9905843,19.4599682 14.2450025,18.6097279 C14.5819536,17.4494685 13.84342,17.1546852 12.8654249,16.9422956 C12.3476765,16.8025976 11.2346065,16.6590338 11.3931626,16.4095784 C12.1891204,16.5190326 12.9744613,16.6359908 13.7005956,16.8025976 M40.9079235,23.6255927 C38.9526308,26.2490053 35.9110815,27.8933187 32.8041259,28.8273173 L32.55304,33.1136899 C32.3709252,35.8053976 33.0859001,37.0114397 36.11536,36.9999183 C38.5431438,36.9661118 42.3225291,35.9149276 44,34.1648741 C41.8162501,34.8035587 40.0040143,34.9210476 39.7409165,32.3240132 C39.5323757,30.2787216 39.8101977,27.3602983 40.9079235,23.6255927 M41.1752835,16.4586963 C40.2316965,13.8238381 38.1217224,12.3005002 35.0420453,12.3005002 C33.3988275,12.3005002 31.8147389,12.8785454 30.3417791,14.057982 C28.1584166,15.8200117 26.948632,18.5716009 25.9090279,21.0892735 C23.0729195,28.0445383 20.5602781,33.9758308 15.4855529,36.9999183 C18.4121761,36.9392788 21.5728362,36.6488161 22.9642706,36.081307 C24.7383011,33.5978198 26.2493888,29.8634174 27.5676673,25.3418396 C28.6763975,21.5242854 30.2958241,14.5195995 35.4624592,14.4967839 C37.4917603,14.4967839 39.3042286,16.0925101 38.7822953,18.5039879 C38.0367097,22.0795151 32.9040953,22.9682614 29.051244,23.1307751 C28.6264128,25.0923843 28.0386083,26.9711449 27.4436742,28.7894176 C27.4436742,28.7894176 36.8427342,28.3163544 40.4404698,22.3292736 C41.6466896,20.3221091 41.7702176,18.2537745 41.1752835,16.4586963 M4,36.0092977 C11.7914127,34.1876897 17.9632438,28.6725352 21.7082211,20.6284139 C25.4378543,12.617796 28.6646182,10.9737099 33.6888937,11.0003154 C35.3431159,11.0226004 36.9740118,11.6009488 38.2996524,12.5837621 C37.3834989,12.1795246 36.3438172,11.9222619 35.0880002,11.9453807 C33.2405039,11.9453807 31.6368089,12.3230126 30.0059129,13.6344157 C27.6133897,15.5475134 26.3812089,18.0042434 25.2484549,20.7455996 C22.1180956,28.4112551 19.2192158,34.1648741 13.0125117,36.9999183 C10.0407085,36.8941783 5.94793067,36.5500496 4,36.0092977 M12.7688653,19.4792213 C12.7688653,19.4792213 11.5865917,18.9837973 11.2114353,18.8323503 C10.8366663,18.700308 10.3919962,18.677265 9.96716509,18.7870224 C9.75056475,18.8435686 9.3523146,18.9382419 9.12470988,19.3878831 C9.08580706,19.4599682 9.09719892,19.5168177 9.15958292,19.5659356 C9.24467314,19.6378691 9.79690715,19.9556196 10.2569988,20.0610564 C10.6936868,20.1670238 11.2000434,20.2499482 11.7060125,20.204696 C12.2239934,20.1329899 12.6843951,19.7775672 12.7574735,19.7057095 C12.81947,19.6378691 12.9042502,19.5278086 12.7688653,19.4792213" id="Fill-1"></path>
            </g>
        </g>
    </g>
</svg>